<svg width="52" height="52" viewBox="0 0 52 52" fill="none" xmlns="http://www.w3.org/2000/svg">
<path d="M23.4 11.7C21.4526 11.7 19.6508 12.311 18.1688 13.351C18.0726 11.8612 17.732 10.569 17.1054 9.42503C19.0846 8.32976 21.3153 7.76987 23.5771 7.80068C25.8389 7.8315 28.0536 8.45195 30.0022 9.60074C31.9508 10.7495 33.5659 12.3869 34.6879 14.351C35.81 16.3151 36.4001 18.538 36.4 20.8H42.2526C43.4589 20.8 44.6158 21.279 45.469 22.1318C46.3222 22.9845 46.8019 24.1411 46.8026 25.3474V39.6474C46.803 40.2454 46.6854 40.8375 46.4568 41.39C46.2281 41.9425 45.8928 42.4445 45.4699 42.8674C45.0471 43.2902 44.5451 43.6255 43.9926 43.8542C43.4401 44.0828 42.848 44.2004 42.25 44.2H27.95C26.7433 44.2 25.586 43.7207 24.7327 42.8674C23.8794 42.0141 23.4 40.8568 23.4 39.65V33.8C21.5914 33.8023 19.8024 33.4259 18.148 32.695C18.1818 31.811 18.2 30.8828 18.2 29.9V29.7388C18.2 29.3046 18.2 28.8054 18.1922 28.2646C19.7191 29.3314 21.5374 29.9023 23.4 29.9V25.35C23.4 22.8384 25.4384 20.8 27.95 20.8H32.5C32.5 18.3866 31.5413 16.0719 29.8347 14.3654C28.1281 12.6588 25.8135 11.7 23.4 11.7ZM35.8046 24.7C35.1745 26.6965 34.0725 28.5118 32.5922 29.9922C31.1118 31.4726 29.2965 32.5745 27.3 33.2046V39.65C27.3 40.0088 27.5912 40.3 27.95 40.3H42.25C42.4224 40.3 42.5877 40.2315 42.7096 40.1096C42.8315 39.9878 42.9 39.8224 42.9 39.65V25.35C42.9 25.1776 42.8315 25.0123 42.7096 24.8904C42.5877 24.7685 42.4224 24.7 42.25 24.7H35.8046ZM31.6238 24.7H27.95C27.7776 24.7 27.6123 24.7685 27.4904 24.8904C27.3685 25.0123 27.3 25.1776 27.3 25.35V29.0238C29.195 28.1218 30.7218 26.595 31.6238 24.7ZM11.9106 5.52503C12.1264 5.7138 12.2738 5.96861 12.3297 6.24981C12.3857 6.53101 12.3471 6.82283 12.22 7.07983C12.198 7.1559 12.1866 7.23464 12.1862 7.31383C12.1862 7.47763 12.2278 7.78963 12.6204 8.17963C12.8102 8.36943 12.9558 8.50463 13.1144 8.65283C13.2444 8.77243 13.3822 8.89723 13.5564 9.06883C13.8944 9.39123 14.2506 9.77083 14.5704 10.2466C15.2334 11.2424 15.6 12.4878 15.6 14.3C15.6 16.5178 14.7784 18.408 13.4966 19.5676L13.663 19.76C14.391 20.6544 14.8148 21.814 15.08 22.958C15.6 25.22 15.6 27.9396 15.6 29.835V29.9C15.6 37.1462 14.6146 41.2568 13.5304 43.6072C12.9844 44.7902 12.4046 45.5442 11.9028 46.0174C11.6988 46.2131 11.4738 46.3858 11.232 46.5322C11.1213 46.5989 11.0057 46.6571 10.8862 46.7064C10.8862 46.7064 10.5924 46.8 10.4 46.8C10.2076 46.8 9.91381 46.7064 9.91381 46.7064C9.79304 46.66 9.6772 46.6017 9.56801 46.5322C9.32618 46.3858 9.10122 46.2131 8.89721 46.0174C8.39541 45.5416 7.81561 44.7902 7.26961 43.6072C6.18541 41.2568 5.20001 37.1462 5.20001 29.9V29.835C5.20001 27.937 5.20001 25.22 5.72001 22.958C5.98521 21.814 6.40901 20.6544 7.13701 19.76C7.18901 19.695 7.24621 19.63 7.30341 19.5676C6.02161 18.408 5.20001 16.5178 5.20001 14.3C5.20001 13.4524 5.42621 12.441 5.73821 11.5076C6.05021 10.5716 6.48701 9.60443 6.99141 8.82443C7.59201 7.81043 8.43701 6.96023 9.09221 6.38823C9.45142 6.07232 9.8263 5.77468 10.2154 5.49643L10.3298 5.41843C10.5682 5.25951 10.8525 5.1838 11.1383 5.20308C11.4242 5.22236 11.6957 5.33554 11.9106 5.52503Z" fill="#383838"/>
</svg>
