<svg width="52" height="52" viewBox="0 0 52 52" fill="none" xmlns="http://www.w3.org/2000/svg">
<path d="M20.8 33.8L23.8333 30.7125L19.1208 26L23.8333 21.2875L20.8 18.2L13 26L20.8 33.8ZM31.2 33.8L39 26L31.2 18.2L28.1667 21.2875L32.8792 26L28.1667 30.7125L31.2 33.8ZM10.8333 45.5C9.64167 45.5 8.62117 45.0753 7.77184 44.226C6.9225 43.3767 6.49856 42.3569 6.5 41.1667V10.8333C6.5 9.64167 6.92467 8.62117 7.774 7.77184C8.62334 6.9225 9.64311 6.49856 10.8333 6.5H41.1667C42.3583 6.5 43.3788 6.92467 44.2282 7.774C45.0775 8.62334 45.5015 9.64311 45.5 10.8333V41.1667C45.5 42.3583 45.0753 43.3788 44.226 44.2282C43.3767 45.0775 42.3569 45.5015 41.1667 45.5H10.8333ZM10.8333 41.1667H41.1667V10.8333H10.8333V41.1667Z" fill="#383838"/>
</svg>
