<svg width="52" height="52" viewBox="0 0 52 52" fill="none" xmlns="http://www.w3.org/2000/svg">
<path d="M26 4.33337C23.1547 4.33337 20.3373 4.8938 17.7086 5.98265C15.0798 7.0715 12.6913 8.66746 10.6794 10.6794C6.61611 14.7427 4.33337 20.2537 4.33337 26C4.33337 35.5767 10.5517 43.7017 19.1534 46.5834C20.2367 46.7567 20.5834 46.085 20.5834 45.5V41.8384C14.5817 43.1384 13.3034 38.935 13.3034 38.935C12.3067 36.4217 10.8984 35.75 10.8984 35.75C8.92671 34.4067 11.05 34.45 11.05 34.45C13.2167 34.6017 14.365 36.6817 14.365 36.6817C16.25 39.975 19.435 39 20.67 38.48C20.865 37.0717 21.4284 36.1184 22.035 35.5767C17.225 35.035 12.1767 33.1717 12.1767 24.9167C12.1767 22.5117 13 20.5834 14.4084 19.045C14.1917 18.5034 13.4334 16.25 14.625 13.325C14.625 13.325 16.445 12.74 20.5834 15.535C22.295 15.0584 24.1584 14.82 26 14.82C27.8417 14.82 29.705 15.0584 31.4167 15.535C35.555 12.74 37.375 13.325 37.375 13.325C38.5667 16.25 37.8084 18.5034 37.5917 19.045C39 20.5834 39.8234 22.5117 39.8234 24.9167C39.8234 33.1934 34.7534 35.0134 29.9217 35.555C30.7017 36.2267 31.4167 37.5484 31.4167 39.5634V45.5C31.4167 46.085 31.7634 46.7784 32.8684 46.5834C41.47 43.68 47.6667 35.5767 47.6667 26C47.6667 23.1547 47.1063 20.3373 46.0174 17.7086C44.9286 15.0798 43.3326 12.6913 41.3207 10.6794C39.3088 8.66746 36.9202 7.0715 34.2915 5.98265C31.6628 4.8938 28.8453 4.33337 26 4.33337Z" fill="#383838"/>
</svg>
