<svg width="69" height="52" viewBox="0 0 69 52" fill="none" xmlns="http://www.w3.org/2000/svg">
<g clip-path="url(#clip0_54_20)">
<path d="M15.6789 51.7441V25.0947L7.41414 17.5337L0.00292969 13.3379V47.0412C0.00292969 49.6433 2.11122 51.7441 4.70583 51.7441H15.6789Z" fill="#4285F4"/>
<path d="M53.301 51.744H64.2741C66.8765 51.744 68.977 49.6355 68.977 47.0411V13.3381L60.5826 18.144L53.301 25.0947V51.744Z" fill="#34A853"/>
<path d="M15.6789 25.0947L14.5543 14.682L15.6789 4.71606L34.49 18.8245L53.3011 4.71606L54.559 14.144L53.3011 25.0947L34.49 39.2031L15.6789 25.0947Z" fill="#EA4335"/>
<path d="M53.301 4.71614V25.0948L68.977 13.3379V7.06746C68.977 1.25181 62.3382 -2.06353 57.6906 1.42425L53.301 4.71614Z" fill="#FBBC04"/>
<path d="M0.00292969 13.3379L7.21261 18.7454L15.6789 25.0948V4.71614L11.2894 1.42425C6.6336 -2.06379 0.00292969 1.25181 0.00292969 7.06719V13.3376V13.3379Z" fill="#C5221F"/>
</g>
<defs>
<clipPath id="clip0_54_20">
<rect width="68.98" height="52" fill="white"/>
</clipPath>
</defs>
</svg>
