<svg width="52" height="52" viewBox="0 0 52 52" fill="none" xmlns="http://www.w3.org/2000/svg">
<g clip-path="url(#clip0_54_11)">
<path d="M44.3063 44.3071H36.6015V32.2408C36.6015 29.3636 36.5501 25.6596 32.5943 25.6596C28.5813 25.6596 27.9673 28.7946 27.9673 32.0314V44.3062H20.2628V19.4933H27.6591V22.8843H27.7627C28.5029 21.6186 29.5726 20.5774 30.8577 19.8716C32.1429 19.1657 33.5954 18.8216 35.0606 18.876C42.8698 18.876 44.3095 24.0126 44.3095 30.695L44.3063 44.3071ZM11.569 16.1017C9.09961 16.1021 7.09741 14.1005 7.097 11.6311C7.0966 9.16176 9.09799 7.15955 11.5674 7.15915C14.0368 7.15854 16.039 9.16013 16.0394 11.6295C16.0396 12.8154 15.5687 13.9527 14.7304 14.7914C13.892 15.6301 12.7549 16.1015 11.569 16.1017ZM15.4215 44.3073H7.70861V19.4933H15.4213V44.3071L15.4215 44.3073ZM48.1474 0.00366253H3.83705C1.74283 -0.0199 0.0254106 1.65771 -0.000183105 3.75193V48.2471C0.0245981 50.3423 1.74182 52.0215 3.83685 51.9996H48.1474C50.2469 52.0256 51.9708 50.3464 51.9998 48.2471V3.74848C51.97 1.65019 50.2458 -0.0272125 48.1474 0.000209408" fill="#0A66C2"/>
</g>
<defs>
<clipPath id="clip0_54_11">
<rect width="52" height="52" fill="white"/>
</clipPath>
</defs>
</svg>
