<svg width="52" height="52" viewBox="0 0 52 52" fill="none" xmlns="http://www.w3.org/2000/svg">
<path d="M19.5 26C18.8861 26 18.3712 25.792 17.9552 25.376C17.5392 24.96 17.3319 24.4458 17.3334 23.8334C17.3334 23.2195 17.5414 22.7045 17.9574 22.2885C18.3734 21.8725 18.8876 21.6653 19.5 21.6667H32.5C33.1139 21.6667 33.6289 21.8747 34.0449 22.2907C34.4609 22.7067 34.6681 23.2209 34.6667 23.8334C34.6667 24.4473 34.4587 24.9622 34.0427 25.3782C33.6267 25.7942 33.1125 26.0015 32.5 26H19.5ZM19.5 17.3334C18.8861 17.3334 18.3712 17.1254 17.9552 16.7094C17.5392 16.2934 17.3319 15.7792 17.3334 15.1667C17.3334 14.5528 17.5414 14.0379 17.9574 13.6219C18.3734 13.2059 18.8876 12.9986 19.5 13H32.5C33.1139 13 33.6289 13.208 34.0449 13.624C34.4609 14.04 34.6681 14.5543 34.6667 15.1667C34.6667 15.7806 34.4587 16.2955 34.0427 16.7115C33.6267 17.1275 33.1125 17.3348 32.5 17.3334H19.5ZM13 30.3334H29.25C30.2972 30.3334 31.2722 30.5594 32.175 31.0115C33.0778 31.4637 33.8361 32.1043 34.45 32.9334L39 38.8917V8.66671H13V30.3334ZM13 43.3334H36.9417L31.0375 35.5875C30.8209 35.2987 30.5594 35.0726 30.2532 34.9094C29.947 34.7462 29.6126 34.6653 29.25 34.6667H13V43.3334ZM39 47.6667H13C11.8084 47.6667 10.7879 47.242 9.93852 46.3927C9.08919 45.5434 8.66525 44.5236 8.66669 43.3334V8.66671C8.66669 7.47504 9.09136 6.45454 9.94069 5.60521C10.79 4.75588 11.8098 4.33193 13 4.33338H39C40.1917 4.33338 41.2122 4.75804 42.0615 5.60738C42.9109 6.45671 43.3348 7.47649 43.3334 8.66671V43.3334C43.3334 44.525 42.9087 45.5455 42.0594 46.3949C41.21 47.2442 40.1902 47.6682 39 47.6667Z" fill="#383838"/>
</svg>
