<svg width="52" height="52" viewBox="0 0 52 52" fill="none" xmlns="http://www.w3.org/2000/svg">
<path d="M26 4.33337C14.04 4.33337 4.33337 14.04 4.33337 26C4.33337 37.96 14.04 47.6667 26 47.6667C37.96 47.6667 47.6667 37.96 47.6667 26C47.6667 14.04 37.96 4.33337 26 4.33337ZM36.0534 19.0667C35.7284 22.49 34.32 30.81 33.605 34.645C33.3017 36.27 32.695 36.8117 32.1317 36.8767C30.875 36.985 29.9217 36.0534 28.7084 35.2517C26.8017 33.995 25.7184 33.215 23.8767 32.0017C21.7317 30.5934 23.1184 29.8134 24.3534 28.5567C24.6784 28.2317 30.225 23.1834 30.3334 22.7284C30.3484 22.6595 30.3464 22.5879 30.3275 22.5199C30.3087 22.452 30.2735 22.3897 30.225 22.3384C30.095 22.23 29.9217 22.2734 29.77 22.295C29.575 22.3384 26.5417 24.3534 20.6267 28.34C19.76 28.925 18.98 29.2284 18.2867 29.2067C17.5067 29.185 16.0334 28.7734 14.9284 28.405C13.5634 27.9717 12.5017 27.7334 12.5884 26.975C12.6317 26.585 13.1734 26.195 14.1917 25.7834C20.5184 23.0317 24.7217 21.2117 26.8234 20.345C32.8467 17.8317 34.0817 17.3984 34.905 17.3984C35.0784 17.3984 35.49 17.4417 35.75 17.6584C35.9667 17.8317 36.0317 18.07 36.0534 18.2434C36.0317 18.3734 36.075 18.7634 36.0534 19.0667Z" fill="url(#paint0_linear_59_26)"/>
<defs>
<linearGradient id="paint0_linear_59_26" x1="26" y1="4.33337" x2="26" y2="47.6667" gradientUnits="userSpaceOnUse">
<stop stop-color="#36ACDF"/>
<stop offset="1" stop-color="#2A589E"/>
</linearGradient>
</defs>
</svg>
