<svg width="52" height="54" viewBox="0 0 52 54" fill="none" xmlns="http://www.w3.org/2000/svg">
<path d="M46.618 3.375H5.382C4.20453 3.375 3.25 4.36624 3.25 5.589V48.411C3.25 49.6338 4.20453 50.625 5.382 50.625H46.618C47.7955 50.625 48.75 49.6338 48.75 48.411V5.589C48.75 4.36624 47.7955 3.375 46.618 3.375Z" fill="#3178C6"/>
<path fill-rule="evenodd" clip-rule="evenodd" d="M29.6481 40.0933V45.2706C30.5539 45.7349 31.5193 46.0616 32.5146 46.2409C33.6648 46.4614 34.8323 46.5699 36.0019 46.5649C37.1418 46.5705 38.2791 46.4512 39.3949 46.2088C40.3966 45.9986 41.3525 45.5982 42.2142 45.0276C43.0143 44.4913 43.6737 43.7572 44.1334 42.8912C44.9566 41.0979 45.0652 39.0398 44.4356 37.1638C44.1699 36.4623 43.774 35.8219 43.2705 35.2789C42.73 34.7015 42.116 34.2036 41.4456 33.799C40.6738 33.3295 39.8719 32.9157 39.0455 32.5603C38.3955 32.2802 37.8105 32.008 37.2905 31.7436C36.8286 31.5139 36.3866 31.2435 35.9694 30.9353C35.6425 30.6973 35.3587 30.4014 35.1309 30.0611C34.934 29.7522 34.8315 29.3887 34.8367 29.0183C34.8324 28.6773 34.9239 28.3425 35.1 28.0547C35.2912 27.7535 35.5464 27.5018 35.8459 27.319C36.2119 27.0951 36.6103 26.9339 37.0256 26.8414C37.5355 26.7237 38.0568 26.6671 38.5791 26.6726C39.0184 26.6742 39.4571 26.7069 39.8921 26.7705C40.3619 26.8365 40.8267 26.9363 41.2831 27.0692C41.7474 27.2028 42.2015 27.372 42.6416 27.5755C43.0687 27.7732 43.4773 28.0116 43.862 28.2876V23.4563C43.061 23.1416 42.2304 22.9153 41.3839 22.7813C40.3616 22.6268 39.3294 22.554 38.2964 22.5636C37.1672 22.5573 36.0413 22.6904 34.9424 22.9601C33.9491 23.1958 33.0046 23.6148 32.1539 24.1971C31.3636 24.7438 30.711 25.4793 30.251 26.3419C29.7634 27.2998 29.5222 28.3722 29.5506 29.4553C29.5146 30.8877 29.9689 32.2868 30.8327 33.4041C31.8925 34.6428 33.2289 35.5926 34.7246 36.1699C35.4071 36.4624 36.0436 36.7487 36.634 37.0288C37.1667 37.275 37.6787 37.5668 38.1647 37.9013C38.5567 38.1661 38.901 38.5002 39.182 38.8885C39.429 39.2406 39.5601 39.6661 39.5557 40.1018C39.558 40.4282 39.4773 40.7495 39.3217 41.0333C39.1489 41.3382 38.9061 41.5938 38.6149 41.7775C38.2505 42.0081 37.8518 42.1746 37.4351 42.2702C36.8923 42.3962 36.337 42.4557 35.7809 42.4474C34.6893 42.4453 33.6066 42.2454 32.5812 41.8568C31.5101 41.4554 30.5167 40.8581 29.6481 40.0933ZM21.2729 27.2042H27.7729V22.9399H9.64923V27.2042H16.12V46.1953H21.2729V27.2042Z" fill="white"/>
</svg>
