<svg width="52" height="52" viewBox="0 0 52 52" fill="none" xmlns="http://www.w3.org/2000/svg">
<rect width="52" height="52" rx="2" fill="#61CB3B"/>
<path d="M6.5 15.1666V26C6.5 27.7239 7.18482 29.3772 8.40381 30.5962C9.62279 31.8151 11.2761 32.5 13 32.5C14.7239 32.5 16.3772 31.8151 17.5962 30.5962C18.8152 29.3772 19.5 27.7239 19.5 26V15.1666H21.6667L30.3333 28.1666C32.1187 31.0245 34.5475 32.5 37.9167 32.5C39.9279 32.5 41.8567 31.701 43.2789 30.2789C44.701 28.8567 45.5 26.9279 45.5 24.9166C45.5 22.9054 44.701 20.9766 43.2789 19.5544C41.8567 18.1322 39.9279 17.3333 37.9167 17.3333C33.5248 17.3333 31.1198 19.5 30.3333 23.8333C29.809 26.715 28.366 32.5 26 41.1666" stroke="white" stroke-width="4.33333" stroke-linecap="round" stroke-linejoin="round"/>
</svg>
