<svg width="52" height="52" viewBox="0 0 52 52" fill="none" xmlns="http://www.w3.org/2000/svg">
<g clip-path="url(#clip0_59_28)">
<path d="M1.10262 25.6888C1.10141 30.0579 2.24299 34.3239 4.41369 38.084L0.89502 50.9312L14.0426 47.4839C17.679 49.4636 21.7533 50.5009 25.8937 50.5011H25.9046C39.5727 50.5011 50.6989 39.379 50.7048 25.7084C50.7074 19.084 48.13 12.8549 43.4471 8.16847C38.7651 3.48242 32.5382 0.900362 25.9036 0.897339C12.2338 0.897339 1.10846 12.0189 1.10282 25.6888" fill="url(#paint0_linear_59_28)"/>
<path d="M0.217246 25.6807C0.215835 30.207 1.39833 34.6256 3.64642 38.5203L0.00158691 51.8281L13.6205 48.2572C17.373 50.3031 21.5979 51.3818 25.897 51.3835H25.9081C40.0666 51.3835 51.5924 39.8612 51.5985 25.7013C51.6009 18.8389 48.9308 12.3859 44.0807 7.53154C39.2299 2.6778 32.7803 0.00282171 25.9081 0C11.7471 0 0.222889 11.5206 0.217246 25.6807ZM8.32763 37.8496L7.81912 37.0423C5.68148 33.6434 4.5532 29.7156 4.55481 25.6824C4.55945 13.9128 14.1379 4.33736 25.9161 4.33736C31.62 4.33978 36.9804 6.56329 41.0123 10.5975C45.0439 14.6322 47.2623 19.9954 47.2609 25.6997C47.2557 37.4692 37.677 47.0459 25.9081 47.0459H25.8996C22.0675 47.0439 18.3092 46.0148 15.0316 44.07L14.2516 43.6074L6.16984 45.7263L8.32763 37.8494V37.8496Z" fill="url(#paint1_linear_59_28)"/>
<path d="M19.487 14.9445C19.0061 13.8757 18.5 13.8541 18.0427 13.8354C17.6682 13.8192 17.2401 13.8205 16.8125 13.8205C16.3844 13.8205 15.6888 13.9815 15.1009 14.6234C14.5124 15.266 12.854 16.8187 12.854 19.9768C12.854 23.1351 15.1543 26.1872 15.475 26.6159C15.796 27.0438 19.9157 33.732 26.4403 36.305C31.8628 38.4433 32.9663 38.018 34.1432 37.9108C35.3202 37.8039 37.9412 36.3584 38.4759 34.8595C39.011 33.3608 39.011 32.0761 38.8506 31.8076C38.6901 31.5402 38.262 31.3795 37.6201 31.0587C36.978 30.7376 33.8221 29.1846 33.2338 28.9704C32.6452 28.7563 32.2174 28.6495 31.7893 29.2923C31.3612 29.934 30.1319 31.3795 29.7572 31.8076C29.3829 32.2367 29.0083 32.2901 28.3665 31.9691C27.7242 31.647 25.6569 30.97 23.2042 28.7834C21.2959 27.0819 20.0076 24.9807 19.6332 24.338C19.2587 23.6962 19.593 23.3483 19.9149 23.0285C20.2033 22.7409 20.5571 22.2789 20.8783 21.9042C21.1984 21.5294 21.3052 21.2619 21.5193 20.8338C21.7335 20.4053 21.6263 20.0304 21.4661 19.7094C21.3052 19.3883 20.0578 16.2137 19.487 14.9445Z" fill="white"/>
</g>
<defs>
<linearGradient id="paint0_linear_59_28" x1="2491.38" y1="5004.29" x2="2491.38" y2="0.897339" gradientUnits="userSpaceOnUse">
<stop stop-color="#1FAF38"/>
<stop offset="1" stop-color="#60D669"/>
</linearGradient>
<linearGradient id="paint1_linear_59_28" x1="2579.85" y1="5182.81" x2="2579.85" y2="0" gradientUnits="userSpaceOnUse">
<stop stop-color="#F9F9F9"/>
<stop offset="1" stop-color="white"/>
</linearGradient>
<clipPath id="clip0_59_28">
<rect width="51.6" height="52" fill="white"/>
</clipPath>
</defs>
</svg>
